<mxfile host="app.diagrams.net" modified="2023-12-20T10:31:16.748Z" agent="Mozilla/5.0 (Windows NT 10.0; Win64; x64) AppleWebKit/537.36 (KHTML, like Gecko) Chrome/120.0.0.0 Safari/537.36" version="22.1.11" etag="Kz3hfUIxGkaJbosa6QyP" type="device">
  <diagram id="d443b605-843c-42fa-be82-cf4c33c4c545" name="Network Plan">
    <mxGraphModel dx="2268" dy="1428" grid="1" gridSize="10" guides="1" tooltips="1" connect="1" arrows="1" fold="1" page="0" pageScale="1" pageWidth="827" pageHeight="1169" math="0" shadow="0">
      <root>
        <mxCell id="0" />
        <mxCell id="1" parent="0" />
        <mxCell id="5db306fc-874c-4c61-a3e0-7ddc0f30e10e" value="&lt;i&gt;octopus.scenario.cip.institute&lt;/i&gt;&lt;br&gt;&lt;br&gt;&lt;strong style=&quot;font-size: 16px&quot;&gt;10.183.0.1&lt;/strong&gt;&lt;br&gt;fd50:52:183::1&lt;br&gt;&lt;br&gt;:22 - ssh&lt;br&gt;&lt;span style=&quot;color: #bbb&quot;&gt;(OpenSSH 9.2p1 Debian 2+deb12u1)&lt;/span&gt;&lt;br&gt;:53 - domain&lt;br&gt;&lt;span style=&quot;color: #bbb&quot;&gt;(dnsmasq 2.89)&lt;/span&gt;&lt;br&gt;&lt;br&gt;OS: Linux 3.1 (95%)&lt;br&gt;Hops: 1&lt;br&gt;" style="rounded=1;whiteSpace=wrap;html=1;arcSize=2" parent="1" vertex="1">
          <mxGeometry width="260" height="200" as="geometry" />
        </mxCell>
        <mxCell id="c33c6291-b58c-4257-854b-22d7e76c1a74" value="&lt;i&gt;flag-http-server.scenario.cip.institute&lt;/i&gt;&lt;br&gt;&lt;br&gt;&lt;strong style=&quot;font-size: 16px&quot;&gt;10.183.0.2&lt;/strong&gt;&lt;br&gt;fd50:52:183:0:200:ff:fef9:ec95&lt;br&gt;&lt;br&gt;:80 - http&lt;br&gt;&lt;span style=&quot;color: #bbb&quot;&gt;(nginx 1.25.3)&lt;/span&gt;&lt;br&gt;&lt;br&gt;OS: HP P2000 G3 NAS device (93%)&lt;br&gt;Hops: 1&lt;br&gt;" style="rounded=1;whiteSpace=wrap;html=1;arcSize=2;fillColor=#d5e8d4;strokeColor=#82b366;" parent="1" vertex="1">
          <mxGeometry y="230" width="260" height="180" as="geometry" />
        </mxCell>
        <mxCell id="dd70210d-e6ea-488e-96d8-88e9e4658ec1" value="&lt;i&gt;packet-challenge.scenario.cip.institute&lt;/i&gt;&lt;br&gt;&lt;br&gt;&lt;strong style=&quot;font-size: 16px&quot;&gt;10.183.0.5&lt;/strong&gt;&lt;br&gt;fd50:52:183::5&lt;br&gt;&lt;br&gt;:22 - ssh&lt;br&gt;&lt;span style=&quot;color: #bbb&quot;&gt;(OpenSSH 9.2p1 Debian 2+deb12u1)&lt;/span&gt;&lt;br&gt;:6666 - irc&lt;br&gt;&lt;br&gt;OS: HP P2000 G3 NAS device (93%)&lt;br&gt;Hops: 1&lt;br&gt;" style="rounded=1;whiteSpace=wrap;html=1;arcSize=2;fillColor=#d5e8d4;strokeColor=#82b366;" parent="1" vertex="1">
          <mxGeometry y="440" width="260" height="200" as="geometry" />
        </mxCell>
        <mxCell id="9a5c2ed3-09f4-4d96-8332-c76c0f2f69a3" value="&lt;i&gt;zero.reverse-engineering.scenario.cip.institute&lt;/i&gt;&lt;br&gt;&lt;br&gt;&lt;strong style=&quot;font-size: 16px&quot;&gt;10.183.0.20&lt;/strong&gt;&lt;br&gt;fd50:52:183:0:200:ff:fe72:fc48&lt;br&gt;&lt;br&gt;:22 - ssh&lt;br&gt;&lt;span style=&quot;color: #bbb&quot;&gt;(OpenSSH 9.2p1 Debian 2+deb12u1)&lt;/span&gt;&lt;br&gt;&lt;br&gt;OS: HP P2000 G3 NAS device (93%)&lt;br&gt;Hops: 1&lt;br&gt;" style="rounded=1;whiteSpace=wrap;html=1;arcSize=2;fillColor=#d5e8d4;strokeColor=#82b366;" parent="1" vertex="1">
          <mxGeometry y="670" width="260" height="180" as="geometry" />
        </mxCell>
        <mxCell id="7dfb84b7-edd8-42b2-8e9a-9fdde0206ac4" value="&lt;i&gt;one.reverse-engineering.scenario.cip.institute&lt;/i&gt;&lt;br&gt;&lt;br&gt;&lt;strong style=&quot;font-size: 16px&quot;&gt;10.183.0.21&lt;/strong&gt;&lt;br&gt;fd50:52:183:0:200:ff:fe30:dc86&lt;br&gt;&lt;br&gt;:22 - ssh&lt;br&gt;&lt;span style=&quot;color: #bbb&quot;&gt;(OpenSSH 9.2p1 Debian 2+deb12u1)&lt;/span&gt;&lt;br&gt;&lt;br&gt;OS: Linux 2.6.32 (94%)&lt;br&gt;Hops: 1&lt;br&gt;" style="rounded=1;whiteSpace=wrap;html=1;arcSize=2;fillColor=#d5e8d4;strokeColor=#82b366;" parent="1" vertex="1">
          <mxGeometry y="880" width="260" height="180" as="geometry" />
        </mxCell>
        <mxCell id="f87c1e10-0914-49b8-8a1e-8197336ca02b" value="&lt;i&gt;two.reverse-engineering.scenario.cip.institute&lt;/i&gt;&lt;br&gt;&lt;br&gt;&lt;strong style=&quot;font-size: 16px&quot;&gt;10.183.0.22&lt;/strong&gt;&lt;br&gt;fd50:52:183:0:200:ff:fe34:544b&lt;br&gt;&lt;br&gt;:22 - ssh&lt;br&gt;&lt;span style=&quot;color: #bbb&quot;&gt;(OpenSSH 9.2p1 Debian 2+deb12u1)&lt;/span&gt;&lt;br&gt;&lt;br&gt;OS: Linux 2.6.32 (94%)&lt;br&gt;Hops: 1&lt;br&gt;" style="rounded=1;whiteSpace=wrap;html=1;arcSize=2;fillColor=#d5e8d4;strokeColor=#82b366;" parent="1" vertex="1">
          <mxGeometry y="1090" width="260" height="180" as="geometry" />
        </mxCell>
        <mxCell id="885f8352-bff5-4b9b-8bdc-753a87f43c12" value="&lt;i&gt;three.reverse-engineering.scenario.cip.institute&lt;/i&gt;&lt;br&gt;&lt;br&gt;&lt;strong style=&quot;font-size: 16px&quot;&gt;10.183.0.23&lt;/strong&gt;&lt;br&gt;fd50:52:183:0:200:ff:feb4:3cae&lt;br&gt;&lt;br&gt;:22 - ssh&lt;br&gt;&lt;span style=&quot;color: #bbb&quot;&gt;(OpenSSH 9.2p1 Debian 2+deb12u1)&lt;/span&gt;&lt;br&gt;&lt;br&gt;OS: Linux 2.6.32 (94%)&lt;br&gt;Hops: 1&lt;br&gt;" style="rounded=1;whiteSpace=wrap;html=1;arcSize=2;fillColor=#d5e8d4;strokeColor=#82b366;" parent="1" vertex="1">
          <mxGeometry y="1300" width="260" height="180" as="geometry" />
        </mxCell>
        <mxCell id="9195fa0a-982b-4272-9a11-5f6ab0459e37" value="&lt;i&gt;four.reverse-engineering.scenario.cip.institute&lt;/i&gt;&lt;br&gt;&lt;br&gt;&lt;strong style=&quot;font-size: 16px&quot;&gt;10.183.0.24&lt;/strong&gt;&lt;br&gt;fd50:52:183:0:200:ff:feed:4928&lt;br&gt;&lt;br&gt;:22 - ssh&lt;br&gt;&lt;span style=&quot;color: #bbb&quot;&gt;(OpenSSH 9.2p1 Debian 2+deb12u1)&lt;/span&gt;&lt;br&gt;&lt;br&gt;OS: Linux 2.6.32 (94%)&lt;br&gt;Hops: 1&lt;br&gt;" style="rounded=1;whiteSpace=wrap;html=1;arcSize=2;fillColor=#d5e8d4;strokeColor=#82b366;" parent="1" vertex="1">
          <mxGeometry y="1510" width="260" height="180" as="geometry" />
        </mxCell>
        <mxCell id="fa7a0972-0d07-405d-8680-1a4f9389e877" value="&lt;i&gt;five.reverse-engineering.scenario.cip.institute&lt;/i&gt;&lt;br&gt;&lt;br&gt;&lt;strong style=&quot;font-size: 16px&quot;&gt;10.183.0.25&lt;/strong&gt;&lt;br&gt;fd50:52:183:0:200:ff:fe8b:1209&lt;br&gt;&lt;br&gt;:22 - ssh&lt;br&gt;&lt;span style=&quot;color: #bbb&quot;&gt;(OpenSSH 9.2p1 Debian 2+deb12u1)&lt;/span&gt;&lt;br&gt;&lt;br&gt;OS: Linux 2.6.32 (94%)&lt;br&gt;Hops: 1&lt;br&gt;" style="rounded=1;whiteSpace=wrap;html=1;arcSize=2;fillColor=#d5e8d4;strokeColor=#82b366;" parent="1" vertex="1">
          <mxGeometry x="290" width="260" height="180" as="geometry" />
        </mxCell>
        <mxCell id="fafdbe92-bcae-4537-884a-b8751e313530" value="&lt;i&gt;six.reverse-engineering.scenario.cip.institute&lt;/i&gt;&lt;br&gt;&lt;br&gt;&lt;strong style=&quot;font-size: 16px&quot;&gt;10.183.0.26&lt;/strong&gt;&lt;br&gt;fd50:52:183:0:200:ff:fe1c:34e5&lt;br&gt;&lt;br&gt;:22 - ssh&lt;br&gt;&lt;span style=&quot;color: #bbb&quot;&gt;(OpenSSH 9.2p1 Debian 2+deb12u1)&lt;/span&gt;&lt;br&gt;&lt;br&gt;OS: HP P2000 G3 NAS device (93%)&lt;br&gt;Hops: 1&lt;br&gt;" style="rounded=1;whiteSpace=wrap;html=1;arcSize=2;fillColor=#d5e8d4;strokeColor=#82b366;" parent="1" vertex="1">
          <mxGeometry x="290" y="210" width="260" height="180" as="geometry" />
        </mxCell>
        <mxCell id="bafef398-4bbc-4279-9faf-4c586bb1cc99" value="&lt;i&gt;seven.reverse-engineering.scenario.cip.institute&lt;/i&gt;&lt;br&gt;&lt;br&gt;&lt;strong style=&quot;font-size: 16px&quot;&gt;10.183.0.27&lt;/strong&gt;&lt;br&gt;fd50:52:183:0:200:ff:fe5b:7140&lt;br&gt;&lt;br&gt;:22 - ssh&lt;br&gt;&lt;span style=&quot;color: #bbb&quot;&gt;(OpenSSH 9.2p1 Debian 2+deb12u1)&lt;/span&gt;&lt;br&gt;&lt;br&gt;OS: HP P2000 G3 NAS device (93%)&lt;br&gt;Hops: 1&lt;br&gt;" style="rounded=1;whiteSpace=wrap;html=1;arcSize=2;fillColor=#d5e8d4;strokeColor=#82b366;" parent="1" vertex="1">
          <mxGeometry x="290" y="420" width="260" height="180" as="geometry" />
        </mxCell>
        <mxCell id="93ede991-eaf9-4d04-85ce-6ca53a8a1b62" value="&lt;i&gt;nine.reverse-engineering.scenario.cip.institute&lt;/i&gt;&lt;br&gt;&lt;br&gt;&lt;strong style=&quot;font-size: 16px&quot;&gt;10.183.0.29&lt;/strong&gt;&lt;br&gt;fd50:52:183:0:200:ff:febe:640&lt;br&gt;&lt;br&gt;:22 - ssh&lt;br&gt;&lt;span style=&quot;color: #bbb&quot;&gt;(OpenSSH 9.2p1 Debian 2+deb12u1)&lt;/span&gt;&lt;br&gt;&lt;br&gt;OS: HP P2000 G3 NAS device (93%)&lt;br&gt;Hops: 1&lt;br&gt;" style="rounded=1;whiteSpace=wrap;html=1;arcSize=2;fillColor=#d5e8d4;strokeColor=#82b366;" parent="1" vertex="1">
          <mxGeometry x="290" y="630" width="260" height="180" as="geometry" />
        </mxCell>
        <mxCell id="39a03a7b-355c-45cc-a14e-65d499bb2bd2" value="&lt;i&gt;three.sandbox-escape.scenario.cip.institute&lt;/i&gt;&lt;br&gt;&lt;br&gt;&lt;strong style=&quot;font-size: 16px&quot;&gt;10.183.0.33&lt;/strong&gt;&lt;br&gt;fd50:52:183::33&lt;br&gt;&lt;br&gt;:22 - ssh&lt;br&gt;&lt;span style=&quot;color: #bbb&quot;&gt;(OpenSSH 9.2p1 Debian 2+deb12u1)&lt;/span&gt;&lt;br&gt;:1025 - ssh&lt;br&gt;&lt;span style=&quot;color: #bbb&quot;&gt;(OpenSSH 9.2p1 Debian 2+deb12u1)&lt;/span&gt;&lt;br&gt;&lt;br&gt;OS: HP P2000 G3 NAS device (93%)&lt;br&gt;Hops: 1&lt;br&gt;" style="rounded=1;whiteSpace=wrap;html=1;arcSize=2;fillColor=#d5e8d4;strokeColor=#82b366;" parent="1" vertex="1">
          <mxGeometry x="290" y="840" width="260" height="200" as="geometry" />
        </mxCell>
        <mxCell id="c3a3c7db-3ad7-4047-851f-d720bbe8210b" value="&lt;i&gt;four.sandbox-escape.scenario.cip.institute&lt;/i&gt;&lt;br&gt;&lt;br&gt;&lt;strong style=&quot;font-size: 16px&quot;&gt;10.183.0.34&lt;/strong&gt;&lt;br&gt;fd50:52:183::34&lt;br&gt;&lt;br&gt;:22 - ssh&lt;br&gt;&lt;span style=&quot;color: #bbb&quot;&gt;(OpenSSH 9.2p1 Debian 2+deb12u1)&lt;/span&gt;&lt;br&gt;&lt;br&gt;OS: HP P2000 G3 NAS device (93%)&lt;br&gt;Hops: 1&lt;br&gt;" style="rounded=1;whiteSpace=wrap;html=1;arcSize=2;fillColor=#d5e8d4;strokeColor=#82b366;" parent="1" vertex="1">
          <mxGeometry x="290" y="1070" width="260" height="180" as="geometry" />
        </mxCell>
        <mxCell id="ca3ab8cc-bc2a-4a74-b88e-6c8809355f0d" value="&lt;i&gt;five.sandbox-escape.scenario.cip.institute&lt;/i&gt;&lt;br&gt;&lt;br&gt;&lt;strong style=&quot;font-size: 16px&quot;&gt;10.183.0.35&lt;/strong&gt;&lt;br&gt;fd50:52:183::35&lt;br&gt;&lt;br&gt;:22 - ssh&lt;br&gt;&lt;span style=&quot;color: #bbb&quot;&gt;(OpenSSH 9.2p1 Debian 2+deb12u1)&lt;/span&gt;&lt;br&gt;:1025 - ssh&lt;br&gt;&lt;span style=&quot;color: #bbb&quot;&gt;(OpenSSH 9.2p1 Debian 2+deb12u1)&lt;/span&gt;&lt;br&gt;&lt;br&gt;OS: HP P2000 G3 NAS device (93%)&lt;br&gt;Hops: 1&lt;br&gt;" style="rounded=1;whiteSpace=wrap;html=1;arcSize=2;fillColor=#d5e8d4;strokeColor=#82b366;" parent="1" vertex="1">
          <mxGeometry x="290" y="1280" width="260" height="200" as="geometry" />
        </mxCell>
        <mxCell id="f1ffe4e7-679d-429a-8b55-9a6f4c096754" value="&lt;i&gt;six.sandbox-escape.scenario.cip.institute&lt;/i&gt;&lt;br&gt;&lt;br&gt;&lt;strong style=&quot;font-size: 16px&quot;&gt;10.183.0.36&lt;/strong&gt;&lt;br&gt;fd50:52:183::36&lt;br&gt;&lt;br&gt;:22 - ssh&lt;br&gt;&lt;span style=&quot;color: #bbb&quot;&gt;(OpenSSH 9.2p1 Debian 2+deb12u1)&lt;/span&gt;&lt;br&gt;:1025 - ssh&lt;br&gt;&lt;span style=&quot;color: #bbb&quot;&gt;(OpenSSH 9.2p1 Debian 2+deb12u1)&lt;/span&gt;&lt;br&gt;&lt;br&gt;OS: HP P2000 G3 NAS device (93%)&lt;br&gt;Hops: 1&lt;br&gt;" style="rounded=1;whiteSpace=wrap;html=1;arcSize=2;fillColor=#d5e8d4;strokeColor=#82b366;" parent="1" vertex="1">
          <mxGeometry x="290" y="1510" width="260" height="200" as="geometry" />
        </mxCell>
        <mxCell id="e40a94c8-2142-42e7-bd9f-3152f5c2338e" value="&lt;strong style=&quot;font-size: 16px&quot;&gt;10.183.0.106&lt;/strong&gt;&lt;br&gt;fd50:52:183:0:200:ff:fe0d:8b72&lt;br&gt;&lt;br&gt;:22 - ssh&lt;br&gt;&lt;span style=&quot;color: #bbb&quot;&gt;(OpenSSH 9.2p1 Debian 2+deb12u1)&lt;/span&gt;&lt;br&gt;&lt;br&gt;OS: HP P2000 G3 NAS device (93%)&lt;br&gt;Hops: 1&lt;br&gt;" style="rounded=1;whiteSpace=wrap;html=1;arcSize=2" parent="1" vertex="1">
          <mxGeometry x="580" width="260" height="180" as="geometry" />
        </mxCell>
        <mxCell id="74e6559c-72c2-4cb4-a3a6-2385f2061f39" value="&lt;strong style=&quot;font-size: 16px&quot;&gt;10.183.0.107&lt;/strong&gt;&lt;br&gt;fd50:52:183:0:200:ff:febd:1629&lt;br&gt;&lt;br&gt;:8080 - http-proxy&lt;br&gt;&lt;br&gt;OS: HP P2000 G3 NAS device (93%)&lt;br&gt;Hops: 1&lt;br&gt;" style="rounded=1;whiteSpace=wrap;html=1;arcSize=2" parent="1" vertex="1">
          <mxGeometry x="580" y="210" width="260" height="180" as="geometry" />
        </mxCell>
        <mxCell id="74606265-d3ae-4999-8fed-5f2cc7c90a09" value="&lt;strong style=&quot;font-size: 16px&quot;&gt;10.183.0.111&lt;/strong&gt;&lt;br&gt;fd50:52:183:0:200:ff:fe42:dad3&lt;br&gt;&lt;br&gt;:80 - http&lt;br&gt;&lt;span style=&quot;color: #bbb&quot;&gt;(nginx 1.22.1)&lt;/span&gt;&lt;br&gt;&lt;br&gt;OS: HP P2000 G3 NAS device (93%)&lt;br&gt;Hops: 1&lt;br&gt;" style="rounded=1;whiteSpace=wrap;html=1;arcSize=2" parent="1" vertex="1">
          <mxGeometry x="580" y="420" width="260" height="180" as="geometry" />
        </mxCell>
        <mxCell id="bbe37784-086b-4aa8-8bae-58e95fd4ecef" value="&lt;i&gt;nextcloud.user.scenario.cip.institute&lt;/i&gt;&lt;br&gt;&lt;br&gt;&lt;strong style=&quot;font-size: 16px&quot;&gt;10.183.0.114&lt;/strong&gt;&lt;br&gt;fd50:52:183:0:200:ff:fe6d:b3f0&lt;br&gt;&lt;br&gt;:80 - http&lt;br&gt;&lt;span style=&quot;color: #bbb&quot;&gt;(Apache httpd 2.4.57)&lt;/span&gt;&lt;br&gt;&lt;br&gt;OS: HP P2000 G3 NAS device (93%)&lt;br&gt;Hops: 1&lt;br&gt;" style="rounded=1;whiteSpace=wrap;html=1;arcSize=2" parent="1" vertex="1">
          <mxGeometry x="580" y="630" width="260" height="180" as="geometry" />
        </mxCell>
        <mxCell id="b6721a04-8405-41ca-a556-e871cd8f1bdc" value="&lt;i&gt;random-webserver.user.scenario.cip.institute&lt;/i&gt;&lt;br&gt;&lt;br&gt;&lt;strong style=&quot;font-size: 16px&quot;&gt;10.183.0.132&lt;/strong&gt;&lt;br&gt;fd50:52:183:0:200:ff:fe53:e291&lt;br&gt;&lt;br&gt;:80 - http&lt;br&gt;&lt;span style=&quot;color: #bbb&quot;&gt;(nginx 1.25.3)&lt;/span&gt;&lt;br&gt;&lt;br&gt;OS: HP P2000 G3 NAS device (93%)&lt;br&gt;Hops: 1&lt;br&gt;" style="rounded=1;whiteSpace=wrap;html=1;arcSize=2" parent="1" vertex="1">
          <mxGeometry x="580" y="840" width="260" height="180" as="geometry" />
        </mxCell>
        <mxCell id="9240db98-b5d2-48f1-807a-64f3ea26304e" value="&lt;strong style=&quot;font-size: 16px&quot;&gt;10.183.0.144&lt;/strong&gt;&lt;br&gt;&lt;br&gt;:139 - netbios-ssn&lt;br&gt;&lt;span style=&quot;color: #bbb&quot;&gt;(Microsoft Windows netbios-ssn )&lt;/span&gt;&lt;br&gt;:445 - microsoft-ds&lt;br&gt;&lt;span style=&quot;color: #bbb&quot;&gt;(Windows 7 Professional 7601 Service Pack 1 microsoft-ds )&lt;/span&gt;&lt;br&gt;:3389 - ms-wbt-server&lt;br&gt;:5985 - http&lt;br&gt;&lt;span style=&quot;color: #bbb&quot;&gt;(Microsoft HTTPAPI httpd 2.0)&lt;/span&gt;&lt;br&gt;&lt;br&gt;OS: Microsoft Windows Phone 7.5 or 8.0 (96%)&lt;br&gt;Hops: 1&lt;br&gt;" style="rounded=1;whiteSpace=wrap;html=1;arcSize=2" parent="1" vertex="1">
          <mxGeometry x="580" y="1050" width="260" height="240" as="geometry" />
        </mxCell>
        <mxCell id="93ba1909-eebc-43d8-a4b7-a20888091d9b" value="&lt;i&gt;jimmys-desktop.user.scenario.cip.institute&lt;/i&gt;&lt;br&gt;&lt;br&gt;&lt;strong style=&quot;font-size: 16px&quot;&gt;10.183.0.153&lt;/strong&gt;&lt;br&gt;fd50:52:183:0:8d95:b253:cb26:de1e&lt;br&gt;&lt;br&gt;:3389 - ms-wbt-server&lt;br&gt;&lt;br&gt;OS: HP P2000 G3 NAS device (93%)&lt;br&gt;Hops: 1&lt;br&gt;" style="rounded=1;whiteSpace=wrap;html=1;arcSize=2" parent="1" vertex="1">
          <mxGeometry x="580" y="1320" width="260" height="180" as="geometry" />
        </mxCell>
        <mxCell id="ce70fc9d-e3cd-49d6-9ba2-a3876c52911d" value="&lt;strong style=&quot;font-size: 16px&quot;&gt;10.183.0.156&lt;/strong&gt;&lt;br&gt;fd50:52:183:0:200:ff:fe61:fecc&lt;br&gt;&lt;br&gt;Hops: 1&lt;br&gt;" style="rounded=1;whiteSpace=wrap;html=1;arcSize=2" parent="1" vertex="1">
          <mxGeometry x="580" y="1530" width="260" height="160" as="geometry" />
        </mxCell>
        <mxCell id="515fa072-43cb-4ee8-a1ae-ce3227df36d2" value="&lt;i&gt;jukebox.user.scenario.cip.institute&lt;/i&gt;&lt;br&gt;&lt;br&gt;&lt;strong style=&quot;font-size: 16px&quot;&gt;10.183.0.240&lt;/strong&gt;&lt;br&gt;fd50:52:183:0:200:ff:fe2c:d6c&lt;br&gt;&lt;br&gt;:80 - http&lt;br&gt;&lt;span style=&quot;color: #bbb&quot;&gt;(nginx 1.22.1)&lt;/span&gt;&lt;br&gt;&lt;br&gt;OS: HP P2000 G3 NAS device (93%)&lt;br&gt;Hops: 1&lt;br&gt;" style="rounded=1;whiteSpace=wrap;html=1;arcSize=2" parent="1" vertex="1">
          <mxGeometry x="870" width="260" height="180" as="geometry" />
        </mxCell>
        <mxCell id="5327c010-6156-4225-958e-df09d930ec81" value="&lt;strong style=&quot;font-size: 16px&quot;&gt;10.183.1.1&lt;/strong&gt;&lt;br&gt;&lt;br&gt;:22 - ssh&lt;br&gt;&lt;span style=&quot;color: #bbb&quot;&gt;(OpenSSH 9.2p1 Debian 2+deb12u1)&lt;/span&gt;&lt;br&gt;:53 - tcpwrapped&lt;br&gt;&lt;br&gt;OS: Linux 3.1 (95%)&lt;br&gt;Hops: 1&lt;br&gt;" style="rounded=1;whiteSpace=wrap;html=1;arcSize=2" parent="1" vertex="1">
          <mxGeometry x="870" y="210" width="260" height="200" as="geometry" />
        </mxCell>
        <mxCell id="4328a9b6-9b6b-43c7-88e9-b252b65cc187" value="&lt;strong style=&quot;font-size: 16px&quot;&gt;10.183.3.1&lt;/strong&gt;&lt;br&gt;&lt;br&gt;:22 - ssh&lt;br&gt;&lt;span style=&quot;color: #bbb&quot;&gt;(OpenSSH 9.2p1 Debian 2+deb12u1)&lt;/span&gt;&lt;br&gt;:53 - domain&lt;br&gt;&lt;span style=&quot;color: #bbb&quot;&gt;(dnsmasq 2.89)&lt;/span&gt;&lt;br&gt;&lt;br&gt;OS: Linux 3.1 (95%)&lt;br&gt;Hops: 1&lt;br&gt;" style="rounded=1;whiteSpace=wrap;html=1;arcSize=2" parent="1" vertex="1">
          <mxGeometry x="870" y="440" width="260" height="200" as="geometry" />
        </mxCell>
        <mxCell id="8dcdf69d-34eb-4965-9e18-e741f15856eb" value="&lt;strong style=&quot;font-size: 16px&quot;&gt;10.183.43.1&lt;/strong&gt;&lt;br&gt;&lt;br&gt;:22 - ssh&lt;br&gt;&lt;span style=&quot;color: #bbb&quot;&gt;(OpenSSH 9.2p1 Debian 2+deb12u1)&lt;/span&gt;&lt;br&gt;:53 - tcpwrapped&lt;br&gt;&lt;br&gt;OS: Linux 3.1 (91%)&lt;br&gt;Hops: 1&lt;br&gt;" style="rounded=1;whiteSpace=wrap;html=1;arcSize=2" parent="1" vertex="1">
          <mxGeometry x="870" y="670" width="260" height="200" as="geometry" />
        </mxCell>
        <mxCell id="a6d30bb0-132c-44f5-910d-d729e9ef78c0" value="&lt;strong style=&quot;font-size: 16px&quot;&gt;10.183.137.1&lt;/strong&gt;&lt;br&gt;&lt;br&gt;:22 - ssh&lt;br&gt;&lt;span style=&quot;color: #bbb&quot;&gt;(OpenSSH 9.2p1 Debian 2+deb12u1)&lt;/span&gt;&lt;br&gt;:53 - domain&lt;br&gt;&lt;span style=&quot;color: #bbb&quot;&gt;(dnsmasq 2.89)&lt;/span&gt;&lt;br&gt;&lt;br&gt;OS: Linux 3.1 (91%)&lt;br&gt;Hops: 1&lt;br&gt;" style="rounded=1;whiteSpace=wrap;html=1;arcSize=2" parent="1" vertex="1">
          <mxGeometry x="870" y="900" width="260" height="200" as="geometry" />
        </mxCell>
        <mxCell id="0be84d7c-1cfb-4152-a6f3-92c542813d74" value="&lt;strong style=&quot;font-size: 16px&quot;&gt;10.183.162.1&lt;/strong&gt;&lt;br&gt;&lt;br&gt;:22 - ssh&lt;br&gt;&lt;span style=&quot;color: #bbb&quot;&gt;(OpenSSH 9.2p1 Debian 2+deb12u1)&lt;/span&gt;&lt;br&gt;:53 - domain&lt;br&gt;&lt;span style=&quot;color: #bbb&quot;&gt;(dnsmasq 2.89)&lt;/span&gt;&lt;br&gt;&lt;br&gt;OS: Linux 3.1 (91%)&lt;br&gt;Hops: 1&lt;br&gt;" style="rounded=1;whiteSpace=wrap;html=1;arcSize=2" parent="1" vertex="1">
          <mxGeometry x="870" y="1130" width="260" height="200" as="geometry" />
        </mxCell>
        <mxCell id="4c0a76f5-0885-4f6c-94fe-a3478980db96" value="&lt;i&gt;mc.scenario.cip.institute&lt;/i&gt;&lt;br&gt;&lt;br&gt;&lt;strong style=&quot;font-size: 16px&quot;&gt;10.183.1.125&lt;/strong&gt;&lt;br&gt;&lt;br&gt;:22 - ssh&lt;br&gt;&lt;span style=&quot;color: #bbb&quot;&gt;(OpenSSH 9.2p1 Debian 2+deb12u1)&lt;/span&gt;&lt;br&gt;:25565 - minecraft&lt;br&gt;&lt;span style=&quot;color: #bbb&quot;&gt;(Minecraft 1.16.5)&lt;/span&gt;&lt;br&gt;&lt;br&gt;OS: Linux 5.0 - 5.4 (100%)&lt;br&gt;Hops: 1&lt;br&gt;" style="rounded=1;whiteSpace=wrap;html=1;arcSize=2" parent="1" vertex="1">
          <mxGeometry x="870" y="1360" width="260" height="200" as="geometry" />
        </mxCell>
        <mxCell id="de96d1cd-b64d-4440-a20e-a8a2bd23952c" value="&lt;i&gt;website.docker.scenario.cip.institute&lt;/i&gt;&lt;br&gt;&lt;br&gt;&lt;strong style=&quot;font-size: 16px&quot;&gt;10.183.3.30&lt;/strong&gt;&lt;br&gt;&lt;br&gt;:22 - ssh&lt;br&gt;&lt;span style=&quot;color: #bbb&quot;&gt;(OpenSSH 9.2p1 Debian 2+deb12u1)&lt;/span&gt;&lt;br&gt;:80 - http&lt;br&gt;&lt;span style=&quot;color: #bbb&quot;&gt;(Apache httpd 2.4.58)&lt;/span&gt;&lt;br&gt;&lt;br&gt;OS: HP P2000 G3 NAS device (93%)&lt;br&gt;Hops: 2&lt;br&gt;" style="rounded=1;whiteSpace=wrap;html=1;arcSize=2" parent="1" vertex="1">
          <mxGeometry x="870" y="1590" width="260" height="200" as="geometry" />
        </mxCell>
        <mxCell id="656a84c6-0ded-45ac-83e7-a4ec348e4478" value="&lt;i&gt;registry.docker.scenario.cip.institute&lt;/i&gt;&lt;br&gt;&lt;br&gt;&lt;strong style=&quot;font-size: 16px&quot;&gt;10.183.3.31&lt;/strong&gt;&lt;br&gt;&lt;br&gt;:5000 - http&lt;br&gt;&lt;span style=&quot;color: #bbb&quot;&gt;(Docker Registry )&lt;/span&gt;&lt;br&gt;&lt;br&gt;OS: HP P2000 G3 NAS device (93%)&lt;br&gt;Hops: 2&lt;br&gt;" style="rounded=1;whiteSpace=wrap;html=1;arcSize=2" parent="1" vertex="1">
          <mxGeometry x="1160" width="260" height="180" as="geometry" />
        </mxCell>
        <mxCell id="53879a1b-506c-4aed-90f5-b6b853dfa594" value="&lt;i&gt;website-judge.docker.scenario.cip.institute&lt;/i&gt;&lt;br&gt;&lt;br&gt;&lt;strong style=&quot;font-size: 16px&quot;&gt;10.183.3.32&lt;/strong&gt;&lt;br&gt;&lt;br&gt;:80 - http&lt;br&gt;&lt;span style=&quot;color: #bbb&quot;&gt;(nginx 1.18.0)&lt;/span&gt;&lt;br&gt;&lt;br&gt;OS: HP P2000 G3 NAS device (93%)&lt;br&gt;Hops: 2&lt;br&gt;" style="rounded=1;whiteSpace=wrap;html=1;arcSize=2" parent="1" vertex="1">
          <mxGeometry x="1160" y="210" width="260" height="180" as="geometry" />
        </mxCell>
        <mxCell id="a1a471a9-58ba-4c7c-aea5-d36939e61920" value="&lt;i&gt;gitlab.scenario.cip.institute&lt;/i&gt;&lt;br&gt;&lt;br&gt;&lt;strong style=&quot;font-size: 16px&quot;&gt;10.183.137.50&lt;/strong&gt;&lt;br&gt;&lt;br&gt;:22 - ssh&lt;br&gt;&lt;span style=&quot;color: #bbb&quot;&gt;(OpenSSH 8.9p1 Ubuntu 3ubuntu0.4)&lt;/span&gt;&lt;br&gt;:80 - http&lt;br&gt;&lt;span style=&quot;color: #bbb&quot;&gt;(nginx )&lt;/span&gt;&lt;br&gt;:8060 - http&lt;br&gt;&lt;span style=&quot;color: #bbb&quot;&gt;(nginx 1.24.0)&lt;/span&gt;&lt;br&gt;&lt;br&gt;OS: HP P2000 G3 NAS device (93%)&lt;br&gt;Hops: 2&lt;br&gt;" style="rounded=1;whiteSpace=wrap;html=1;arcSize=2" parent="1" vertex="1">
          <mxGeometry x="1160" y="420" width="260" height="220" as="geometry" />
        </mxCell>
        <mxCell id="5336b9b5-743e-4631-b027-3c143b45052c" value="&lt;strong style=&quot;font-size: 16px&quot;&gt;10.183.162.22&lt;/strong&gt;&lt;br&gt;&lt;br&gt;:80 - http&lt;br&gt;&lt;span style=&quot;color: #bbb&quot;&gt;(nginx 1.22.1)&lt;/span&gt;&lt;br&gt;&lt;br&gt;OS: Linux 2.6.32 (94%)&lt;br&gt;Hops: 2&lt;br&gt;" style="rounded=1;whiteSpace=wrap;html=1;arcSize=2" parent="1" vertex="1">
          <mxGeometry x="1160" y="670" width="260" height="180" as="geometry" />
        </mxCell>
        <mxCell id="a228c732-f6ec-48fd-a4ba-5ecc8ece76a1" value="&lt;strong style=&quot;font-size: 16px&quot;&gt;10.183.162.31&lt;/strong&gt;&lt;br&gt;&lt;br&gt;:65012 - unknown&lt;br&gt;&lt;br&gt;OS: HP P2000 G3 NAS device (93%)&lt;br&gt;Hops: 2&lt;br&gt;" style="rounded=1;whiteSpace=wrap;html=1;arcSize=2" parent="1" vertex="1">
          <mxGeometry x="1160" y="880" width="260" height="180" as="geometry" />
        </mxCell>
        <mxCell id="df055ef3-37db-46c3-84e8-0c5809b99679" value="&lt;strong style=&quot;font-size: 16px&quot;&gt;10.183.162.45&lt;/strong&gt;&lt;br&gt;&lt;br&gt;:80 - http&lt;br&gt;&lt;span style=&quot;color: #bbb&quot;&gt;(nginx )&lt;/span&gt;&lt;br&gt;:443 - http&lt;br&gt;&lt;span style=&quot;color: #bbb&quot;&gt;(nginx )&lt;/span&gt;&lt;br&gt;&lt;br&gt;OS: HP P2000 G3 NAS device (93%)&lt;br&gt;Hops: 2&lt;br&gt;" style="rounded=1;whiteSpace=wrap;html=1;arcSize=2" parent="1" vertex="1">
          <mxGeometry x="1160" y="1090" width="260" height="200" as="geometry" />
        </mxCell>
        <mxCell id="1d83d400-96a9-4608-b423-dbe17e93cb7e" value="&lt;strong style=&quot;font-size: 16px&quot;&gt;10.183.162.137&lt;/strong&gt;&lt;br&gt;&lt;br&gt;:80 - http&lt;br&gt;&lt;span style=&quot;color: #bbb&quot;&gt;(nginx 1.22.1)&lt;/span&gt;&lt;br&gt;&lt;br&gt;OS: HP P2000 G3 NAS device (93%)&lt;br&gt;Hops: 2&lt;br&gt;" style="rounded=1;whiteSpace=wrap;html=1;arcSize=2" parent="1" vertex="1">
          <mxGeometry x="1160" y="1320" width="260" height="180" as="geometry" />
        </mxCell>
        <mxCell id="0b477bdc-c7bb-43a7-89bf-39ef41534af0" value="&lt;strong style=&quot;font-size: 16px&quot;&gt;10.183.162.152&lt;/strong&gt;&lt;br&gt;&lt;br&gt;:3000 - http&lt;br&gt;&lt;span style=&quot;color: #bbb&quot;&gt;(nginx 1.18.0)&lt;/span&gt;&lt;br&gt;:3001 - http&lt;br&gt;&lt;span style=&quot;color: #bbb&quot;&gt;(nginx 1.18.0)&lt;/span&gt;&lt;br&gt;:6900 - http&lt;br&gt;&lt;span style=&quot;color: #bbb&quot;&gt;(Node.js )&lt;/span&gt;&lt;br&gt;:6901 - jetstream&lt;br&gt;&lt;br&gt;OS: Linux 2.6.32 (94%)&lt;br&gt;Hops: 2&lt;br&gt;" style="rounded=1;whiteSpace=wrap;html=1;arcSize=2" parent="1" vertex="1">
          <mxGeometry x="1160" y="1530" width="260" height="240" as="geometry" />
        </mxCell>
        <mxCell id="17a024c9-18ea-4529-a9ca-4dde1fb266e3" value="&lt;i&gt;mail.scenario.cip.institute&lt;/i&gt;&lt;br&gt;&lt;br&gt;&lt;strong style=&quot;font-size: 16px&quot;&gt;10.183.162.167&lt;/strong&gt;&lt;br&gt;&lt;br&gt;:22 - ssh&lt;br&gt;&lt;span style=&quot;color: #bbb&quot;&gt;(OpenSSH 9.2p1 Debian 2+deb12u1)&lt;/span&gt;&lt;br&gt;:25 - smtp&lt;br&gt;&lt;span style=&quot;color: #bbb&quot;&gt;(Postfix smtpd )&lt;/span&gt;&lt;br&gt;:53 - tcpwrapped&lt;br&gt;:80 - http&lt;br&gt;&lt;span style=&quot;color: #bbb&quot;&gt;(nginx )&lt;/span&gt;&lt;br&gt;:110 - pop3&lt;br&gt;&lt;span style=&quot;color: #bbb&quot;&gt;(Dovecot pop3d )&lt;/span&gt;&lt;br&gt;:143 - imap&lt;br&gt;&lt;span style=&quot;color: #bbb&quot;&gt;(Dovecot imapd )&lt;/span&gt;&lt;br&gt;:443 - http&lt;br&gt;&lt;span style=&quot;color: #bbb&quot;&gt;(nginx )&lt;/span&gt;&lt;br&gt;:465 - smtp&lt;br&gt;&lt;span style=&quot;color: #bbb&quot;&gt;(Postfix smtpd )&lt;/span&gt;&lt;br&gt;:587 - smtp&lt;br&gt;&lt;span style=&quot;color: #bbb&quot;&gt;(Postfix smtpd )&lt;/span&gt;&lt;br&gt;:993 - imaps&lt;br&gt;:995 - pop3s&lt;br&gt;:4190 - sieve&lt;br&gt;&lt;span style=&quot;color: #bbb&quot;&gt;(Dovecot Pigeonhole sieve 1.0)&lt;/span&gt;&lt;br&gt;&lt;br&gt;OS: HP P2000 G3 NAS device (93%)&lt;br&gt;Hops: 2&lt;br&gt;" style="rounded=1;whiteSpace=wrap;html=1;arcSize=2" parent="1" vertex="1">
          <mxGeometry x="1450" width="260" height="400" as="geometry" />
        </mxCell>
        <mxCell id="2177faa7-2b18-4247-9bbb-bb52fc13ba0a" value="Unidentified host:&lt;br&gt;&lt;br&gt;MAC: 62:D5:59:C9:09:D2&lt;br&gt;IPv6: fd50:52:183:0:60d5:59ff:fec9:9d2" style="rounded=1;whiteSpace=wrap;html=1;arcSize=2" parent="1" vertex="1">
          <mxGeometry x="-700" width="260" height="100" as="geometry" />
        </mxCell>
        <mxCell id="ec00103a-819c-4d0d-9f44-d2cd8044d9cb" value="Unidentified host:&lt;br&gt;&lt;br&gt;MAC: 62:D5:59:C9:09:D2&lt;br&gt;IPv6: fd50:52:183:0:4817:adff:fec0:cce9" style="rounded=1;whiteSpace=wrap;html=1;arcSize=2" parent="1" vertex="1">
          <mxGeometry x="-700" y="130" width="260" height="100" as="geometry" />
        </mxCell>
      </root>
    </mxGraphModel>
  </diagram>
</mxfile>
